<svg xmlns="http://www.w3.org/2000/svg" width="559.662" height="101.341" viewBox="0 0 559.662 101.341"><g transform="translate(-2.834 -79.439)"><path fill-rule="evenodd" d="M77.159,161.925V173.81H2.834V92.075H16.215v69.85ZM66.755,121.8,81.617,93.559H67.5L56.348,121.8ZM188.27,105.491a53.078,53.078,0,0,0-20.147-18.3,59.537,59.537,0,0,0-54.731,0,53.086,53.086,0,0,0-20.15,18.3,46.366,46.366,0,0,0,0,50.325,53.064,53.064,0,0,0,20.15,18.3,59.537,59.537,0,0,0,54.731,0,53.078,53.078,0,0,0,20.147-18.3,46.366,46.366,0,0,0,0-50.325Zm-11.565,45.18a40.546,40.546,0,0,1-15.068,14.389,42.765,42.765,0,0,1-41.048,0,40.567,40.567,0,0,1-15.068-14.389,37.885,37.885,0,0,1,0-39.421,40.537,40.537,0,0,1,15.068-14.386,42.744,42.744,0,0,1,41.048,0,40.514,40.514,0,0,1,15.068,14.386,37.868,37.868,0,0,1,0,39.421Zm112.29-23.348c-2.42,5.325-7,8.4-10.578,10.264s-6.162,2.51-8.762,2.417l26.014,33.809H280.8l-25.158-32.693H222.83v32.693H209.453V92.075h53.511A31.932,31.932,0,0,1,278.7,95.862a23.1,23.1,0,0,1,11,12.714c1.965,5.851,1.714,13.423-.7,18.747Zm-14.966-.559a12.93,12.93,0,0,0,4.341-10.18,14.263,14.263,0,0,0-4.9-10.081c-2.8-2.345-6.378-2.54-9.761-2.54H222.83v25.266h40.878c3.614,0,7.5-.081,10.32-2.465Zm92.247.236v11.143H320.937v23.782h60.945V173.81H307.557V92.075h74.325v11.888H320.937V127Zm.742-47.561h-20.07l-8.173,10.4ZM408.087,153l-10.6,20.805H384.114l41.617-81.738h13.381l41.623,81.738H467.353L456.761,153H408.087Zm24.332-47.794L413.379,142.6H451.46L432.419,105.21Zm129.323,56.715V173.81H487.423V92.075H500.8v69.85Zm-5.791-53.448-.117-1.95a3.521,3.521,0,0,0-.135-1.125,3.56,3.56,0,0,0-.661-1.143,1.286,1.286,0,0,0-.823-.464,2.6,2.6,0,0,0,1.379-1.125,3.9,3.9,0,0,0,.556-2.091,4.306,4.306,0,0,0-.673-2.271,4.236,4.236,0,0,0-3.925-1.5h-5.92v13.656h2.3v-5.609h3.434a2.342,2.342,0,0,1,1.624.437c.829.978.461,2.265.607,3.356a4.231,4.231,0,0,0,.344,1.816h2.582v-.422c-.47-.194-.512-.876-.571-1.568Zm-2.839-6.016a3.34,3.34,0,0,1-1.956.449h-3.243V98.752c1.415.018,2.839-.06,4.242.054a1.9,1.9,0,0,1,1.514,1.077,2.192,2.192,0,0,1-.556,2.579Z" data-name="Path 52094"/><path fill-rule="evenodd" d="M203.722,89.423a11.48,11.48,0,1,0,1.55,5.762A11.591,11.591,0,0,0,203.722,89.423Zm-1.379,10.772a9.806,9.806,0,0,1-16.967,0,9.784,9.784,0,0,1,13.381-13.354,9.768,9.768,0,0,1,3.587,13.354Z" data-name="Path 52095" transform="translate(357.224 8.408)"/></g></svg>